<svg width="164.75" height="70" viewBox="0 0 164.75 70" xmlns="http://www.w3.org/2000/svg"><g id="svgGroup" stroke-linecap="round" fill-rule="nonzero" font-size="20" stroke="#FFF" stroke-width="2" fill="white" style="stroke:#FFF;stroke-width:2;fill:white"><path d="M 42.1 70 L 10.3 70 L 0 59.7 L 0 10.3 L 10.3 0 L 42.1 0 L 52.4 10.3 L 52.4 22.9 L 38.3 22.9 L 38.3 17.2 L 35.25 14.15 L 17.1 14.15 L 14.1 17.3 L 14.1 52.85 L 17.1 55.85 L 35.25 55.85 L 38.3 52.8 L 38.3 45.9 L 24.45 45.9 L 24.45 31.8 L 52.4 31.8 L 52.4 59.7 L 42.1 70 Z M 1.35 59.15 L 10.85 68.65 L 41.55 68.65 L 51.1 59.15 L 51.1 33.15 L 25.8 33.15 L 25.8 44.6 L 39.65 44.6 L 39.65 53.35 L 35.8 57.2 L 16.65 57.2 L 12.75 53.5 L 12.75 16.65 L 16.6 12.8 L 35.8 12.8 L 39.65 16.65 L 39.65 21.55 L 51.1 21.55 L 51.1 10.85 L 41.55 1.35 L 10.85 1.35 L 1.35 10.85 L 1.35 59.15 Z M 98.2 70 L 72.2 70 L 61.9 59.7 L 61.9 10.3 L 72.2 0 L 97.9 0 L 108.25 10.3 L 108.25 20.95 L 94.1 20.95 L 94.1 17.2 L 91.05 14.15 L 79.05 14.15 L 76 17.2 L 76 24.1 L 77.5 22.6 L 98.2 22.6 L 108.5 32.9 L 108.5 59.7 L 98.2 70 Z M 63.25 59.15 L 72.75 68.65 L 97.65 68.65 L 107.15 59.15 L 107.15 33.45 L 97.65 23.95 L 78.05 23.95 L 74.65 27.35 L 74.65 16.65 L 78.5 12.8 L 91.6 12.8 L 95.45 16.65 L 95.45 19.6 L 106.9 19.6 L 106.9 10.85 L 97.35 1.35 L 72.75 1.35 L 63.25 10.85 L 63.25 59.15 Z M 154.45 70 L 126.3 70 L 116 59.7 L 116 10.3 L 126.3 0 L 154.45 0 L 164.75 10.3 L 164.75 59.7 L 154.45 70 Z M 117.35 59.15 L 126.85 68.65 L 153.9 68.65 L 163.4 59.15 L 163.4 10.85 L 153.9 1.35 L 126.85 1.35 L 117.35 10.85 L 117.35 59.15 Z M 149.1 57.2 L 133.65 57.2 L 133.65 55.8 L 151.7 23.2 L 152.95 23.2 L 152.95 53.35 L 149.1 57.2 Z M 129.05 45.8 L 127.85 45.8 L 127.85 16.65 L 131.65 12.8 L 146.45 12.8 L 146.45 14.2 L 129.05 45.8 Z M 151.6 26.1 L 135.2 55.85 L 148.55 55.85 L 151.6 52.8 L 151.6 26.1 Z M 91.9 57.2 L 78.5 57.2 L 74.65 53.35 L 74.65 40.2 L 79.5 35.4 L 91.9 35.4 L 95.75 39.25 L 95.75 53.35 L 91.9 57.2 Z M 129.15 17.2 L 129.15 42.8 L 144.9 14.15 L 132.25 14.15 L 129.15 17.2 Z M 76 52.8 L 79.05 55.85 L 91.35 55.85 L 94.4 52.8 L 94.4 39.8 L 91.35 36.75 L 80.05 36.75 L 76 40.75 L 76 52.8 Z" vector-effect="non-scaling-stroke"/></g></svg>